<svg id="Layer_1" data-name="Layer 1" xmlns="http://www.w3.org/2000/svg" viewBox="0 0 19.96 22.3"><defs><style>.cls-1{fill:#ccc;}</style></defs><title>icon-phone</title><path class="cls-1" d="M192,311.7a30.92,30.92,0,0,0,15.29,18.24,1.2,1.2,0,0,0,1.26-.17l2.39-2,0.56-.47a1.19,1.19,0,0,0,.15-1.68l-3.1-3.7a1.19,1.19,0,0,0-1.68-.15l-1,.84a1.35,1.35,0,0,1-1.79,0,34.56,34.56,0,0,1-5.38-6.41,1.35,1.35,0,0,1,.27-1.77l1-.84a1.19,1.19,0,0,0,.15-1.68l-3.1-3.7a1.19,1.19,0,0,0-1.68-.15l-2.95,2.47a1.19,1.19,0,0,0-.39,1.21h0Zm0,0" transform="translate(-192 -307.75)"/></svg>