<svg id="Layer_1" data-name="Layer 1" xmlns="http://www.w3.org/2000/svg" viewBox="0 0 76.85 70.21"><defs><style>.cls-1{fill:#262424;}</style></defs><title>logo</title><path class="cls-1" d="M428.91-116.43v-3.39a1.53,1.53,0,0,0,0-.32,1.17,1.17,0,0,0-.1-0.25l0-.07h0v0l0,0,0.26-.17h0.05l0.05,0,0.09,0.15a1,1,0,0,1,.07.18l0,0a2.22,2.22,0,0,1,.42-0.25,1,1,0,0,1,.39-0.08,0.86,0.86,0,0,1,.74.4,2,2,0,0,1,.27,1.14,2.08,2.08,0,0,1-.29,1.17,0.93,0.93,0,0,1-.82.41,1.17,1.17,0,0,1-.36-0.06,1.22,1.22,0,0,1-.31-0.15v1.26l0,0,0,0-0.3.07a0.16,0.16,0,0,1-.1,0A0.05,0.05,0,0,1,428.91-116.43Zm0.47-3.56v1.8a1.52,1.52,0,0,0,.33.15,1.05,1.05,0,0,0,.32.06,0.53,0.53,0,0,0,.48-0.24,2,2,0,0,0,.15-0.94,1.87,1.87,0,0,0-.15-0.88,0.5,0.5,0,0,0-.46-0.24,0.87,0.87,0,0,0-.31.08A1.66,1.66,0,0,0,429.38-120Z" transform="translate(-420.08 186.57)"/><path class="cls-1" d="M434.21-118.2l0.11,0.28v0h0a0.12,0.12,0,0,1-.06.07l-0.17.09a2,2,0,0,1-.34.11,1.64,1.64,0,0,1-.34,0,1.23,1.23,0,0,1-1-.4,1.7,1.7,0,0,1-.36-1.16,1.74,1.74,0,0,1,.34-1.15,1.08,1.08,0,0,1,.88-0.42,1,1,0,0,1,.8.38,1.91,1.91,0,0,1,.29,1.15v0a0.23,0.23,0,0,1,0,.08,0,0,0,0,1,0,0h-1.73v0a1.15,1.15,0,0,0,.23.74,0.74,0.74,0,0,0,.61.28,1,1,0,0,0,.31,0,1.71,1.71,0,0,0,.36-0.17l0,0h0.06v0Zm-1.61-1.22h1.29a1.48,1.48,0,0,0,0-.28,1.57,1.57,0,0,0-.07-0.25,0.64,0.64,0,0,0-.21-0.27,0.59,0.59,0,0,0-.32-0.1,0.56,0.56,0,0,0-.48.24A1.12,1.12,0,0,0,432.59-119.42Z" transform="translate(-420.08 186.57)"/><path class="cls-1" d="M436.05-119v1.3a0.05,0.05,0,0,1,0,0H435.6a0,0,0,0,1,0,0v-2.84a0.12,0.12,0,0,1,0-.05l0,0,0.12,0,0.21,0h0l0,0,0,0h0v1.26h0.26a0.37,0.37,0,0,0,.25-0.08,0.54,0.54,0,0,0,.14-0.26l0.08-.32a1.2,1.2,0,0,1,.16-0.41,0.53,0.53,0,0,1,.25-0.2l0.15,0,0.16,0h0.06a0.06,0.06,0,0,1,0,0l0.07,0.28a0.06,0.06,0,0,1,0,.05l-0.07,0h-0.09l-0.12,0a0.2,0.2,0,0,0-.07.06,0.29,0.29,0,0,0,0,.09l0,0.15-0.07.25a0.87,0.87,0,0,1-.16.33,0.51,0.51,0,0,1-.25.16,0.55,0.55,0,0,1,.25.14,0.64,0.64,0,0,1,.16.25l0.19,0.59a0.37,0.37,0,0,0,0,.11,0.19,0.19,0,0,0,.06.07l0.07,0,0.11,0h0.07a0.09,0.09,0,0,1,.07,0,0.1,0.1,0,0,1,0,.06l-0.08.28,0,0-0.06,0-0.21,0-0.16,0a0.48,0.48,0,0,1-.2-0.15,1.46,1.46,0,0,1-.18-0.46l-0.12-.44a0.56,0.56,0,0,0-.14-0.25,0.35,0.35,0,0,0-.25-0.07h-0.27Z" transform="translate(-420.08 186.57)"/><path class="cls-1" d="M440.72-120.53v2.79a0.08,0.08,0,0,1,0,.06l-0.06,0h-0.32l-0.06,0a0.09,0.09,0,0,1,0-.06v-2.51h-0.76v0.08c0,0.19,0,.44,0,0.75s0,0.54-.05.69a2,2,0,0,1-.19.7,0.81,0.81,0,0,1-.37.36l-0.14,0-0.21,0h0l0,0a0.1,0.1,0,0,1,0,0l-0.06-.24a0.08,0.08,0,0,1,0-.07,0.13,0.13,0,0,1,.09,0h0.06a0.46,0.46,0,0,0,.3-0.15,0.88,0.88,0,0,0,.18-0.4,6.16,6.16,0,0,0,.07-0.72c0-.33,0-0.69,0-1.07v-0.19a0.08,0.08,0,0,1,0-.07l0.08,0h1.51l0.06,0A0.08,0.08,0,0,1,440.72-120.53Z" transform="translate(-420.08 186.57)"/><path class="cls-1" d="M443.46-119.51v-0.22a0.6,0.6,0,0,0-.14-0.43,0.52,0.52,0,0,0-.38-0.13,1.38,1.38,0,0,0-.35,0,1.79,1.79,0,0,0-.34.11l-0.07,0h-0.05a0,0,0,0,1,0,0l-0.09-.25a0.07,0.07,0,0,1,0-.08,0.33,0.33,0,0,1,.12-0.08,3.12,3.12,0,0,1,.42-0.13,1.93,1.93,0,0,1,.43,0,1,1,0,0,1,.69.22,0.81,0.81,0,0,1,.24.63v1.4a1.68,1.68,0,0,0,0,.24,0.65,0.65,0,0,0,.06.2l0,0.09a0.27,0.27,0,0,0,0,.08l0,0v0l0,0-0.26.16a0.07,0.07,0,0,1-.08,0,0.34,0.34,0,0,1-.08-0.1l-0.06-.11-0.06-.17v0l0,0a1.36,1.36,0,0,1-.42.31,1,1,0,0,1-.4.08,0.82,0.82,0,0,1-.6-0.23,0.84,0.84,0,0,1-.22-0.63,0.91,0.91,0,0,1,.22-0.64,1.18,1.18,0,0,1,.63-0.35l0.33-.06,0.3,0h0.1Zm0,1.18v-0.8h-0.09a1.49,1.49,0,0,0-.76.18,0.54,0.54,0,0,0-.27.5,0.54,0.54,0,0,0,.12.37,0.4,0.4,0,0,0,.31.13,0.68,0.68,0,0,0,.32-0.09,1.35,1.35,0,0,0,.33-0.25Z" transform="translate(-420.08 186.57)"/><path class="cls-1" d="M446-120.56l0.48,1.35a1.81,1.81,0,0,1,0,.18l0.06,0.24h0c0-.06,0-0.14.05-0.22a2,2,0,0,1,.06-0.2l0.47-1.35a0.06,0.06,0,0,1,0,0l0,0h0.44l0,0,0,0,0.16,2.86a0,0,0,0,1,0,0h-0.43a0.06,0.06,0,0,1,0,0l-0.07-2.14h0a2,2,0,0,0,0-.23h0l0,0.14,0,0.09-0.52,1.5,0,0.06h-0.35a0.15,0.15,0,0,1,0-.05l-0.51-1.5a0.32,0.32,0,0,1,0-.07s0-.08,0-0.15h0a1.61,1.61,0,0,0,0,.23l-0.07,2.14,0,0h-0.43a0,0,0,0,1,0,0l0.16-2.86a0.07,0.07,0,0,1,0,0l0,0h0.43l0,0Z" transform="translate(-420.08 186.57)"/><path class="cls-1" d="M449.69-119v1.26a0.07,0.07,0,0,1,0,.06l-0.06,0H449.3l-0.06,0a0.08,0.08,0,0,1,0-.06v-2.81a0.11,0.11,0,0,1,0,0l0,0,0.14,0,0.2,0h0l0,0,0,0v1.27h1.19v-1.17a0.11,0.11,0,0,1,0,0l0,0,0.33-.08h0l0,0v3a0.09,0.09,0,0,1,0,.06l-0.05,0H451l-0.06,0a0.06,0.06,0,0,1,0-.06V-119h-1.19Z" transform="translate(-420.08 186.57)"/><path class="cls-1" d="M453.76-120.7a1.08,1.08,0,0,1,.87.4,1.81,1.81,0,0,1,.34,1.16,1.75,1.75,0,0,1-.34,1.16,1.1,1.1,0,0,1-.87.4,1.09,1.09,0,0,1-.88-0.4,1.78,1.78,0,0,1-.33-1.17,1.77,1.77,0,0,1,.33-1.16A1.11,1.11,0,0,1,453.76-120.7Zm0,0.38a0.57,0.57,0,0,0-.54.31,1.86,1.86,0,0,0-.17.87,1.86,1.86,0,0,0,.17.88,0.56,0.56,0,0,0,.54.31,0.57,0.57,0,0,0,.53-0.31,1.84,1.84,0,0,0,.17-0.88,1.85,1.85,0,0,0-.17-0.87A0.56,0.56,0,0,0,453.76-120.32Z" transform="translate(-420.08 186.57)"/><path class="cls-1" d="M458.08-118.2l0.11,0.28a0.06,0.06,0,0,0,0,0h0a0.12,0.12,0,0,1-.06.07l-0.17.09a1.9,1.9,0,0,1-.34.11,1.65,1.65,0,0,1-.34,0,1.23,1.23,0,0,1-1-.4,1.7,1.7,0,0,1-.36-1.16,1.73,1.73,0,0,1,.34-1.15,1.08,1.08,0,0,1,.88-0.42,1,1,0,0,1,.8.38,1.94,1.94,0,0,1,.29,1.15v0a0.26,0.26,0,0,1,0,.08,0,0,0,0,1,0,0h-1.73v0a1.14,1.14,0,0,0,.23.74,0.73,0.73,0,0,0,.61.28,1,1,0,0,0,.31,0,1.69,1.69,0,0,0,.36-0.17l0,0h0.06Zm-1.61-1.22h1.3a1.4,1.4,0,0,0,0-.28,1.57,1.57,0,0,0-.07-0.25,0.64,0.64,0,0,0-.21-0.27,0.58,0.58,0,0,0-.32-0.1,0.57,0.57,0,0,0-.48.24A1.15,1.15,0,0,0,456.46-119.42Z" transform="translate(-420.08 186.57)"/><path class="cls-1" d="M462.63-119.51v-0.22a0.62,0.62,0,0,0-.14-0.43,0.53,0.53,0,0,0-.38-0.13,1.36,1.36,0,0,0-.35,0,1.74,1.74,0,0,0-.34.11l-0.07,0H461.3a0,0,0,0,1,0,0l-0.09-.25a0.07,0.07,0,0,1,0-.08,0.32,0.32,0,0,1,.12-0.08,3,3,0,0,1,.42-0.13,1.91,1.91,0,0,1,.43,0,1,1,0,0,1,.69.22,0.81,0.81,0,0,1,.24.63v1.4a1.81,1.81,0,0,0,0,.24,0.65,0.65,0,0,0,.06.2l0,0.09,0,0.08,0,0v0l0,0-0.26.16a0.07,0.07,0,0,1-.08,0,0.3,0.3,0,0,1-.08-0.1l-0.06-.11a1.59,1.59,0,0,1-.05-0.17v0l0,0a1.33,1.33,0,0,1-.42.31,1,1,0,0,1-.4.08,0.82,0.82,0,0,1-.6-0.23,0.84,0.84,0,0,1-.22-0.63,0.92,0.92,0,0,1,.22-0.64,1.2,1.2,0,0,1,.63-0.35l0.33-.06,0.3,0h0.1Zm0,1.18v-0.8h-0.09a1.5,1.5,0,0,0-.76.18,0.54,0.54,0,0,0-.27.5,0.54,0.54,0,0,0,.12.37,0.4,0.4,0,0,0,.31.13,0.68,0.68,0,0,0,.32-0.09,1.4,1.4,0,0,0,.33-0.25Z" transform="translate(-420.08 186.57)"/><path class="cls-1" d="M464.49-117.73v-2.79a0.11,0.11,0,0,1,0-.07,0.08,0.08,0,0,1,.06,0h1.49a0.07,0.07,0,0,1,.06,0,0.1,0.1,0,0,1,0,.08l0,0.24a0.11,0.11,0,0,1,0,.05l-0.06,0h-1v2.47a0.08,0.08,0,0,1,0,.06l-0.06,0h-0.32l-0.06,0A0.08,0.08,0,0,1,464.49-117.73Z" transform="translate(-420.08 186.57)"/><path class="cls-1" d="M469-118.2l0.11,0.28a0.06,0.06,0,0,0,0,0h0a0.12,0.12,0,0,1-.06.07l-0.17.09a2,2,0,0,1-.34.11,1.66,1.66,0,0,1-.34,0,1.23,1.23,0,0,1-1-.4,1.7,1.7,0,0,1-.36-1.16,1.74,1.74,0,0,1,.34-1.15,1.09,1.09,0,0,1,.88-0.42,1,1,0,0,1,.8.38,1.93,1.93,0,0,1,.29,1.15v0a0.24,0.24,0,0,1,0,.08,0,0,0,0,1,0,0H467.4v0a1.14,1.14,0,0,0,.23.74,0.73,0.73,0,0,0,.61.28,1,1,0,0,0,.31,0,1.7,1.7,0,0,0,.36-0.17l0,0H469v0Zm-1.61-1.22h1.3a1.34,1.34,0,0,0,0-.28,1.31,1.31,0,0,0-.07-0.25,0.62,0.62,0,0,0-.21-0.27,0.59,0.59,0,0,0-.32-0.1,0.57,0.57,0,0,0-.48.24A1.14,1.14,0,0,0,467.4-119.42Z" transform="translate(-420.08 186.57)"/><path class="cls-1" d="M470.87-119v1.26a0.08,0.08,0,0,1,0,.06l-0.06,0h-0.32l-0.06,0a0.09,0.09,0,0,1,0-.06v-2.81a0.12,0.12,0,0,1,0,0l0,0,0.14,0,0.2,0h0l0,0,0,0v1.27h1.19v-1.17a0.1,0.1,0,0,1,0,0l0,0,0.33-.08h0l0,0v3a0.11,0.11,0,0,1,0,.06l-0.05,0h-0.32l-0.06,0a0.06,0.06,0,0,1,0-.06V-119h-1.19Z" transform="translate(-420.08 186.57)"/><path class="cls-1" d="M474.81-120.22v2.49a0.12,0.12,0,0,1,0,.06l-0.05,0h-0.32l-0.06,0a0.09,0.09,0,0,1,0-.06v-2.49h-0.78a0.07,0.07,0,0,1-.06,0,0.07,0.07,0,0,1,0-.06v-0.25a0.05,0.05,0,0,1,0-.05l0.06,0h2.11l0.06,0a0.07,0.07,0,0,1,0,.07l-0.08.24a0.09,0.09,0,0,1,0,.06h-0.81Z" transform="translate(-420.08 186.57)"/><path class="cls-1" d="M478.6-120.29l-0.15.28,0,0h0l-0.05,0a1.41,1.41,0,0,0-.32-0.2,0.81,0.81,0,0,0-.28-0.06,0.66,0.66,0,0,0-.56.28,1.5,1.5,0,0,0-.2.88,1.69,1.69,0,0,0,.18.88,0.6,0.6,0,0,0,.53.27,1.09,1.09,0,0,0,.32,0,1.88,1.88,0,0,0,.36-0.17l0,0h0.06v0l0.11,0.28a0.05,0.05,0,0,0,0,0h0a0.09,0.09,0,0,1-.05.07l-0.17.09a2.06,2.06,0,0,1-.35.11,1.67,1.67,0,0,1-.35,0,1.11,1.11,0,0,1-.89-0.38,1.67,1.67,0,0,1-.31-1.13,2,2,0,0,1,.33-1.17,1.06,1.06,0,0,1,.9-0.46,1.3,1.3,0,0,1,.41.07,1.44,1.44,0,0,1,.39.19l0.09,0.09A0.05,0.05,0,0,1,478.6-120.29Z" transform="translate(-420.08 186.57)"/><path class="cls-1" d="M480.59-120.22v2.49a0.11,0.11,0,0,1,0,.06l-0.05,0H480.2l-0.06,0a0.09,0.09,0,0,1,0-.06v-2.49h-0.78a0.07,0.07,0,0,1-.06,0,0.06,0.06,0,0,1,0-.06v-0.25a0,0,0,0,1,0-.05l0.06,0h2.11l0.06,0a0.08,0.08,0,0,1,0,.07l-0.08.24a0.1,0.1,0,0,1,0,.06h-0.81Z" transform="translate(-420.08 186.57)"/><path class="cls-1" d="M482.49-120.62h1a1,1,0,0,1,.66.2,0.71,0.71,0,0,1,.22.57,0.75,0.75,0,0,1-.11.4,0.61,0.61,0,0,1-.29.23,0.65,0.65,0,0,1,.38.26,0.78,0.78,0,0,1,.13.46,0.8,0.8,0,0,1-.26.62,1,1,0,0,1-.7.23h-1l-0.06,0a0.08,0.08,0,0,1,0-.06v-2.81a0.07,0.07,0,0,1,0-.05Zm0.4,0.38v0.85h0.55a0.45,0.45,0,0,0,.33-0.12,0.43,0.43,0,0,0,.12-0.32,0.36,0.36,0,0,0-.12-0.29,0.55,0.55,0,0,0-.34-0.11h-0.53Zm0,1.23v1h0.56a0.55,0.55,0,0,0,.39-0.13,0.45,0.45,0,0,0,.14-0.35,0.45,0.45,0,0,0-.13-0.36,0.58,0.58,0,0,0-.4-0.13h-0.56Z" transform="translate(-420.08 186.57)"/><path class="cls-1" d="M486.73-120.7a1.08,1.08,0,0,1,.87.4,1.81,1.81,0,0,1,.34,1.16,1.75,1.75,0,0,1-.34,1.16,1.11,1.11,0,0,1-.87.4,1.08,1.08,0,0,1-.87-0.4,1.77,1.77,0,0,1-.33-1.17,1.76,1.76,0,0,1,.33-1.16A1.1,1.1,0,0,1,486.73-120.7Zm0,0.38a0.56,0.56,0,0,0-.53.31,1.83,1.83,0,0,0-.17.87,1.84,1.84,0,0,0,.17.88,0.56,0.56,0,0,0,.53.31,0.57,0.57,0,0,0,.53-0.31,1.84,1.84,0,0,0,.17-0.88,1.9,1.9,0,0,0-.17-0.87A0.56,0.56,0,0,0,486.73-120.32Z" transform="translate(-420.08 186.57)"/><path class="cls-1" d="M489.32-160.51l-1.26-1.92A49.61,49.61,0,0,1,478-157c0-1.84.08-10.14,0.08-10.14A19.58,19.58,0,0,0,468.38-184a25.74,25.74,0,0,0-3-1.38,19.85,19.85,0,0,0-13.63,0,19,19,0,0,0-2.83,1.38,19.32,19.32,0,0,0-9.72,16.84s-0.08,7.23-.08,10.14a57.06,57.06,0,0,1-9.52-5.07,0.5,0.5,0,0,0-.74.16l-1.3,1.92a54.18,54.18,0,0,0,20.14,8.58,38.23,38.23,0,0,0,4.06.69,50.94,50.94,0,0,0,13.63,0,36.59,36.59,0,0,0,4.14-.69,54.78,54.78,0,0,0,19.62-8.23A0.63,0.63,0,0,0,489.32-160.51Zm-33.11-1c-0.84.69-2.6,0.15-4.44-1.22a25.72,25.72,0,0,1-2.07-2c-2.45-2.83-3.44-5.82-2.3-6.89,0.84-.69,2.53-0.15,4.36,1.23a16.81,16.81,0,0,1,2.14,2C456.29-165.68,457.35-162.62,456.21-161.55Zm11.26-3.21a16.62,16.62,0,0,1-2.07,2c-1.84,1.38-3.6,1.91-4.44,1.22-1.15-1.07-.08-4.13,2.3-6.89a16.93,16.93,0,0,1,2.14-2c1.84-1.38,3.52-1.91,4.29-1.23C470.83-170.58,469.84-167.59,467.46-164.76Z" transform="translate(-420.08 186.57)"/><path class="cls-1" d="M435.17-129.67a8.58,8.58,0,0,1-2.47-.19,2.58,2.58,0,0,1-.86-1.41l-0.5-1.37h-7.46l-0.48,1.37a2.46,2.46,0,0,1-.85,1.4,8.1,8.1,0,0,1-2.48.21l5.05-13.52a3.64,3.64,0,0,1,.8-1.5,3.69,3.69,0,0,1,1.66-.22h1.72Zm-4.49-4.87-3.09-8.65-3.06,8.65h6.15Z" transform="translate(-420.08 186.57)"/><path class="cls-1" d="M448.07-135.73q0,6.27-5.14,6.27-3.09,0-4.13-1.66V-125a5,5,0,0,1-2.18-.25,3,3,0,0,1-.31-1.83v-14.8a3.33,3.33,0,0,1,1.66.22,2.74,2.74,0,0,1,.24,1.53q1.1-1.9,4.67-1.9Q448.07-142,448.07-135.73Zm-2.56,0a5.77,5.77,0,0,0-.62-3,3.06,3.06,0,0,0-2.71-1.16q-2.55,0-3,.53t-0.43,3.66a5.66,5.66,0,0,0,.59,3,3,3,0,0,0,2.76,1.19q2.55,0,3-.52T445.51-135.73Z" transform="translate(-420.08 186.57)"/><path class="cls-1" d="M472.86-129.67a3.41,3.41,0,0,1-1.69-.22,2.71,2.71,0,0,1-.24-1.53q-1,1.9-4.46,1.9-2.83,0-3.92-1.54a7.37,7.37,0,0,1-.89-4.13v-6.66a4.72,4.72,0,0,1,2.18.27,3.26,3.26,0,0,1,.31,1.93V-135a4.17,4.17,0,0,0,.53,2.47,3,3,0,0,0,2.5.86,3.79,3.79,0,0,0,2.73-.94c0.26-.29.39-0.79,0.39-2.51v-6.74a4.86,4.86,0,0,1,2.21.27,3.28,3.28,0,0,1,.31,1.93Z" transform="translate(-420.08 186.57)"/><path class="cls-1" d="M484.17-129.64h-3.69q-6.06,0-6.06-6.09t6-6.09h3.75a3.78,3.78,0,0,1-.24,1.81,2.87,2.87,0,0,1-1.66.27h-1.9a13.11,13.11,0,0,0-2.38.12,1.17,1.17,0,0,0-.86,1,20.67,20.67,0,0,0-.12,2.88q0,4.07,3.39,4.07h1.78a3.24,3.24,0,0,1,1.74.25A3.46,3.46,0,0,1,484.17-129.64Z" transform="translate(-420.08 186.57)"/><path class="cls-1" d="M460.13-141.82a3.83,3.83,0,0,1-.25,1.9,3.37,3.37,0,0,1-1.83.27h-2.29v10a5,5,0,0,1-2.23-.27,2.91,2.91,0,0,1-.33-1.84v-7.87h-4.37a4.06,4.06,0,0,1,.24-1.9,2.86,2.86,0,0,1,1.67-.27h9.39Z" transform="translate(-420.08 186.57)"/><path class="cls-1" d="M496.93-141.82a3.87,3.87,0,0,1-.25,1.9,3.39,3.39,0,0,1-1.83.27h-2.29v10a5,5,0,0,1-2.23-.27,2.92,2.92,0,0,1-.33-1.84v-7.87h-4.37a4,4,0,0,1,.24-1.9,2.84,2.84,0,0,1,1.66-.27h9.39Z" transform="translate(-420.08 186.57)"/></svg>